<?xml version="1.0" encoding="UTF-8"?>
<!DOCTYPE svg PUBLIC "-//W3C//DTD SVG 1.1//EN" "http://www.w3.org/Graphics/SVG/1.1/DTD/svg11.dtd">
<!-- Creator: CorelDRAW 2019 (64-Bit) -->
<svg xmlns="http://www.w3.org/2000/svg" xml:space="preserve" width="271px" height="64px" version="1.1" style="shape-rendering:geometricPrecision; text-rendering:geometricPrecision; image-rendering:optimizeQuality; fill-rule:evenodd; clip-rule:evenodd"
viewBox="0 0 173.631 41.304"
 xmlns:xlink="http://www.w3.org/1999/xlink"
 xmlns:xodm="http://www.corel.com/coreldraw/odm/2003">
 <defs>
  <style type="text/css">
   <![CDATA[
    .fil0 {fill:black}
    .fil1 {fill:black;fill-rule:nonzero}
    .fil2 {fill:black;fill-rule:nonzero}
   ]]>
  </style>
 </defs>
 <g id="Layer_x0020_1">
  <metadata id="CorelCorpID_0Corel-Layer"/>
  <path class="fil0" d="M173.631 24.76l0 -5.425 -10.746 0 0 -4.347 9.181 0 0 -5.425 -9.181 0 0 -4.138 10.746 0 0 -5.425 -16.831 0 0 24.76 16.831 0zm-61.621 -7.651c0,1.043 -0.556,2.191 -2.226,2.191l-4.103 0 0 -4.347 4.103 0c1.67,0 2.226,1.113 2.226,2.156zm-0.348 -9.632c0,0.973 -0.522,2.017 -2.191,2.017l-3.79 0 0 -4.034 3.79 0c1.669,0 2.191,1.043 2.191,2.017zm-11.143 -6.553l0 22.912 9.856 0c3.993,0 6.797,-2.243 6.797,-6.379 0,-2.215 -0.81,-3.48 -2.624,-4.605l-1.206 -0.749 1.173 -0.799c1.403,-0.957 2.309,-2.409 2.309,-4.14 0,-4.263 -2.903,-6.24 -6.97,-6.24l-9.335 0zm12.415 16.185c0,1.877 -1.267,3.115 -3.15,3.115l-5.027 0 0 -6.194 5.027 0c1.884,0 3.15,1.21 3.15,3.079zm-0.348 -9.632c0,1.853 -1.303,2.94 -3.115,2.94l-4.714 0 0 -5.881 4.714 0c1.812,0 3.115,1.087 3.115,2.941zm60.121 16.359l0 -3.577 -10.745 0 0 -6.195 9.18 0 0 -3.577 -9.18 0 0 -5.986 10.745 0 0 -3.577 -14.984 0 0 22.912 14.984 0zm-20.031 0l-8.238 -13.915 7.592 -8.997 -5.016 0 -8.525 10.429 0 -10.429 -4.169 0 0 22.912 4.169 0 0 -7.177 3.173 -3.649 6.081 10.826 4.933 0zm-25.211 0l0 -22.912 -4.238 0 0 22.912 4.238 0zm-9.369 -6.379c0,-3.477 -2.052,-4.764 -3.061,-5.39 0.765,-0.522 2.713,-2.086 2.713,-4.903 0,-4.278 -2.747,-7.164 -7.894,-7.164l-10.259 0 0 24.76 10.78 0c4.417,0 7.721,-2.574 7.721,-7.303zm10.293 7.303l0 -24.76 -6.086 0 0 24.76 6.086 0zm25.907 0l-8.728 -14.745 8.45 -10.015 -7.442 0 -7.164 8.763 0 -8.763 -6.016 0 0 24.76 6.016 0 0 -7.755 2.087 -2.399 5.703 10.154 7.094 0z"/>
  <path class="fil1" d="M96.5 24.76l-5.355 -10.328c1.947,-0.974 4.034,-3.095 4.034,-6.468 0,-4.069 -2.956,-7.964 -8.45,-7.964l-9.807 0 0 24.76 6.086 0 0 -9.216 2.051 0 4.382 9.216 7.059 0zm-7.407 -16.796c0,1.286 -0.973,2.503 -2.643,2.503l-3.442 0 0 -5.007 3.442 0c1.67,0 2.643,1.217 2.643,2.504z"/>
  <polygon class="fil1" points="72.61,24.76 72.61,19.335 61.865,19.335 61.865,14.988 71.045,14.988 71.045,9.563 61.865,9.563 61.865,5.425 72.61,5.425 72.61,0 55.779,0 55.779,24.76 "/>
  <polygon class="fil1" points="52.232,5.425 52.232,0 33.975,0 33.975,5.425 40.061,5.425 40.061,24.76 46.146,24.76 46.146,5.425 "/>
  <polygon class="fil1" points="30.428,24.76 30.428,0 24.342,0 24.342,12.45 16.414,0 11.093,0 11.093,24.76 17.179,24.76 17.179,12.31 25.107,24.76 "/>
  <polygon class="fil1" points="6.086,24.76 6.086,0 0,0 0,24.76 "/>
  <path class="fil2" d="M142.237 41.185l-8.475 0 0 -1.797 4.782 -4.344c0.905,-0.823 1.359,-1.62 1.359,-2.39 0,-0.572 -0.191,-1.043 -0.569,-1.415 -0.379,-0.372 -0.866,-0.559 -1.465,-0.559 -0.572,0 -1.06,0.187 -1.464,0.562 -0.405,0.376 -0.609,0.883 -0.609,1.518l-2.014 0c0,-0.751 0.177,-1.425 0.533,-2.015 0.359,-0.592 0.849,-1.049 1.477,-1.375 0.626,-0.326 1.317,-0.487 2.077,-0.487 0.596,0 1.142,0.088 1.633,0.27 0.493,0.181 0.918,0.434 1.277,0.766 0.362,0.33 0.641,0.731 0.839,1.198 0.2,0.471 0.299,0.975 0.299,1.514 0,0.675 -0.177,1.284 -0.536,1.824 -0.356,0.539 -0.899,1.155 -1.633,1.849l-3.258 3.084 5.747 0 0 1.797zm10.459 -3.913c0,0.816 -0.181,1.53 -0.54,2.136 -0.359,0.609 -0.849,1.076 -1.471,1.405 -0.619,0.326 -1.307,0.491 -2.057,0.491 -0.75,0 -1.438,-0.165 -2.057,-0.491 -0.622,-0.329 -1.112,-0.8 -1.471,-1.409 -0.359,-0.612 -0.54,-1.323 -0.54,-2.132l0 -3.963c0,-0.618 0.106,-1.175 0.313,-1.675 0.21,-0.497 0.503,-0.925 0.888,-1.28 0.382,-0.359 0.817,-0.626 1.304,-0.806 0.49,-0.182 1.01,-0.27 1.563,-0.27 0.553,0 1.08,0.092 1.576,0.276 0.497,0.181 0.932,0.451 1.307,0.803 0.372,0.356 0.662,0.783 0.872,1.284 0.208,0.5 0.313,1.056 0.313,1.668l0 3.963zm-2.014 -0.059l0 -3.845c0,-0.444 -0.083,-0.839 -0.247,-1.191 -0.165,-0.349 -0.405,-0.622 -0.721,-0.813 -0.319,-0.194 -0.681,-0.289 -1.086,-0.289 -0.405,0 -0.767,0.095 -1.086,0.289 -0.316,0.191 -0.556,0.464 -0.721,0.813 -0.164,0.352 -0.247,0.747 -0.247,1.191l0 3.845c0,0.687 0.185,1.24 0.55,1.662 0.365,0.421 0.869,0.631 1.504,0.631 0.635,0 1.139,-0.21 1.504,-0.631 0.365,-0.422 0.55,-0.975 0.55,-1.662zm12.526 3.972l-8.475 0 0 -1.797 4.782 -4.344c0.905,-0.823 1.359,-1.62 1.359,-2.39 0,-0.572 -0.191,-1.043 -0.569,-1.415 -0.379,-0.372 -0.866,-0.559 -1.465,-0.559 -0.572,0 -1.059,0.187 -1.464,0.562 -0.405,0.376 -0.609,0.883 -0.609,1.518l-2.014 0c0,-0.751 0.177,-1.425 0.533,-2.015 0.359,-0.592 0.849,-1.049 1.478,-1.375 0.625,-0.326 1.316,-0.487 2.076,-0.487 0.596,0 1.142,0.088 1.633,0.27 0.493,0.181 0.918,0.434 1.277,0.766 0.362,0.33 0.641,0.731 0.839,1.198 0.201,0.471 0.299,0.975 0.299,1.514 0,0.675 -0.177,1.284 -0.536,1.824 -0.356,0.539 -0.898,1.155 -1.632,1.849l-3.259 3.084 5.747 0 0 1.797zm10.423 0l-8.475 0 0 -1.797 4.782 -4.344c0.905,-0.823 1.359,-1.62 1.359,-2.39 0,-0.572 -0.19,-1.043 -0.569,-1.415 -0.378,-0.372 -0.866,-0.559 -1.465,-0.559 -0.572,0 -1.059,0.187 -1.464,0.562 -0.405,0.376 -0.609,0.883 -0.609,1.518l-2.014 0c0,-0.751 0.178,-1.425 0.533,-2.015 0.359,-0.592 0.849,-1.049 1.478,-1.375 0.625,-0.326 1.316,-0.487 2.076,-0.487 0.596,0 1.142,0.088 1.633,0.27 0.493,0.181 0.918,0.434 1.277,0.766 0.362,0.33 0.642,0.731 0.839,1.198 0.201,0.471 0.3,0.975 0.3,1.514 0,0.675 -0.178,1.284 -0.537,1.824 -0.355,0.539 -0.898,1.155 -1.632,1.849l-3.259 3.084 5.747 0 0 1.797z"/>
 </g>
</svg>
