<?xml version="1.0" encoding="UTF-8"?>
<!DOCTYPE svg PUBLIC "-//W3C//DTD SVG 1.1//EN" "http://www.w3.org/Graphics/SVG/1.1/DTD/svg11.dtd">
<!-- Creator: CorelDRAW 2019 (64-Bit) -->
<svg xmlns="http://www.w3.org/2000/svg" xml:space="preserve" width="303px" height="95px" version="1.1" style="shape-rendering:geometricPrecision; text-rendering:geometricPrecision; image-rendering:optimizeQuality; fill-rule:evenodd; clip-rule:evenodd"
viewBox="0 0 201.872 63.16"
 xmlns:xlink="http://www.w3.org/1999/xlink"
 xmlns:xodm="http://www.corel.com/coreldraw/odm/2003">
 <defs>
  <style type="text/css">
   <![CDATA[
    .fil0 {fill:none}
    .fil2 {fill:black;fill-rule:nonzero}
    .fil3 {fill:#4D4D4D;fill-rule:nonzero}
    .fil1 {fill:#EC5242;fill-rule:nonzero}
   ]]>
  </style>
 </defs>
 <g id="Layer_x0020_1">
  <metadata id="CorelCorpID_0Corel-Layer"/>
  <polygon class="fil0" points="0,0 201.872,0 201.872,63.16 0,63.16 "/>
  <polygon class="fil1" points="191.103,35.847 191.103,30.212 179.943,30.212 179.943,25.698 189.477,25.698 189.477,20.063 179.943,20.063 179.943,15.765 191.103,15.765 191.103,10.131 173.622,10.131 173.622,35.847 "/>
  <polygon class="fil1" points="171.022,35.847 161.956,20.533 170.733,10.131 163.004,10.131 155.563,19.233 155.563,10.131 149.315,10.131 149.315,35.847 155.563,35.847 155.563,27.792 157.731,25.3 163.654,35.847 "/>
  <polygon class="fil1" points="144.114,35.847 144.114,10.131 137.794,10.131 137.794,35.847 "/>
  <path class="fil1" d="M133.424 28.262c0,-3.612 -2.131,-4.948 -3.179,-5.598 0.795,-0.542 2.817,-2.167 2.817,-5.093 0,-4.442 -2.853,-7.44 -8.198,-7.44l-10.655 0 0 25.716 11.197 0c4.587,0 8.018,-2.673 8.018,-7.585zm-6.321 -0.361c0,1.083 -0.578,2.275 -2.311,2.275l-4.262 0 0 -4.515 4.262 0c1.733,0 2.311,1.156 2.311,2.24zm-0.361 -10.005c0,1.012 -0.542,2.095 -2.275,2.095l-3.937 0 0 -4.19 3.937 0c1.733,0 2.275,1.084 2.275,2.095z"/>
  <path class="fil2" d="M110.995 35.847l-5.562 -10.727c2.022,-1.011 4.19,-3.215 4.19,-6.718 0,-4.226 -3.071,-8.271 -8.777,-8.271l-10.185 0 0 25.716 6.321 0 0 -9.572 2.13 0 4.551 9.572 7.332 0zm-7.693 -17.445c0,1.336 -1.011,2.6 -2.745,2.6l-3.575 0 0 -5.201 3.575 0c1.734,0 2.745,1.265 2.745,2.601z"/>
  <polygon class="fil2" points="86.182,35.847 86.182,30.212 75.022,30.212 75.022,25.698 84.557,25.698 84.557,20.063 75.022,20.063 75.022,15.765 86.182,15.765 86.182,10.131 68.702,10.131 68.702,35.847 "/>
  <polygon class="fil2" points="65.018,15.765 65.018,10.131 46.056,10.131 46.056,15.765 52.377,15.765 52.377,35.847 58.697,35.847 58.697,15.765 "/>
  <polygon class="fil2" points="42.372,35.847 42.372,10.131 36.052,10.131 36.052,23.061 27.817,10.131 22.291,10.131 22.291,35.847 28.612,35.847 28.612,22.917 36.846,35.847 "/>
  <polygon class="fil2" points="17.09,35.847 17.09,10.131 10.77,10.131 10.77,35.847 "/>
  <path class="fil3" d="M158.497 52.906l-8.802 0 0 -1.866 4.966 -4.512c0.94,-0.855 1.412,-1.682 1.412,-2.482 0,-0.595 -0.198,-1.084 -0.591,-1.47 -0.393,-0.386 -0.899,-0.581 -1.521,-0.581 -0.595,0 -1.101,0.195 -1.521,0.584 -0.421,0.39 -0.633,0.917 -0.633,1.576l-2.092 0c0,-0.779 0.185,-1.48 0.554,-2.092 0.373,-0.615 0.882,-1.09 1.535,-1.429 0.649,-0.338 1.367,-0.505 2.157,-0.505 0.618,0 1.186,0.092 1.695,0.28 0.513,0.188 0.954,0.451 1.326,0.796 0.376,0.342 0.667,0.759 0.872,1.245 0.208,0.488 0.311,1.011 0.311,1.572 0,0.701 -0.185,1.333 -0.557,1.894 -0.369,0.56 -0.933,1.199 -1.696,1.921l-3.384 3.203 5.969 0 0 1.866zm10.863 -4.064c0,0.847 -0.188,1.589 -0.561,2.218 -0.373,0.632 -0.882,1.118 -1.528,1.46 -0.642,0.338 -1.357,0.509 -2.136,0.509 -0.78,0 -1.494,-0.171 -2.137,-0.509 -0.646,-0.342 -1.155,-0.831 -1.527,-1.464 -0.373,-0.635 -0.561,-1.374 -0.561,-2.214l0 -4.116c0,-0.642 0.109,-1.22 0.325,-1.74 0.218,-0.516 0.523,-0.96 0.923,-1.329 0.396,-0.373 0.847,-0.65 1.353,-0.838 0.509,-0.188 1.049,-0.28 1.624,-0.28 0.574,0 1.121,0.095 1.637,0.287 0.516,0.188 0.967,0.468 1.357,0.834 0.386,0.369 0.687,0.814 0.906,1.333 0.215,0.52 0.325,1.097 0.325,1.733l0 4.116zm-2.092 -0.062l0 -3.992c0,-0.462 -0.086,-0.872 -0.257,-1.238 -0.171,-0.362 -0.42,-0.646 -0.748,-0.844 -0.332,-0.202 -0.708,-0.301 -1.128,-0.301 -0.421,0 -0.797,0.099 -1.128,0.301 -0.328,0.198 -0.578,0.482 -0.749,0.844 -0.171,0.366 -0.256,0.776 -0.256,1.238l0 3.992c0,0.714 0.191,1.289 0.571,1.726 0.379,0.438 0.902,0.656 1.562,0.656 0.659,0 1.183,-0.218 1.562,-0.656 0.379,-0.437 0.571,-1.012 0.571,-1.726zm13.009 4.126l-8.802 0 0 -1.866 4.967 -4.512c0.94,-0.855 1.412,-1.682 1.412,-2.482 0,-0.595 -0.198,-1.084 -0.592,-1.47 -0.393,-0.386 -0.899,-0.581 -1.521,-0.581 -0.594,0 -1.1,0.195 -1.521,0.584 -0.42,0.39 -0.632,0.917 -0.632,1.576l-2.092 0c0,-0.779 0.184,-1.48 0.554,-2.092 0.372,-0.615 0.881,-1.09 1.534,-1.429 0.65,-0.338 1.368,-0.505 2.157,-0.505 0.619,0 1.186,0.092 1.696,0.28 0.512,0.188 0.953,0.451 1.326,0.796 0.376,0.342 0.666,0.759 0.872,1.245 0.208,0.488 0.311,1.011 0.311,1.572 0,0.701 -0.185,1.333 -0.558,1.894 -0.369,0.56 -0.933,1.199 -1.695,1.921l-3.384 3.203 5.968 0 0 1.866zm10.826 0l-8.802 0 0 -1.866 4.966 -4.512c0.941,-0.855 1.412,-1.682 1.412,-2.482 0,-0.595 -0.198,-1.084 -0.591,-1.47 -0.393,-0.386 -0.899,-0.581 -1.521,-0.581 -0.595,0 -1.101,0.195 -1.521,0.584 -0.421,0.39 -0.633,0.917 -0.633,1.576l-2.092 0c0,-0.779 0.185,-1.48 0.554,-2.092 0.373,-0.615 0.882,-1.09 1.535,-1.429 0.649,-0.338 1.367,-0.505 2.157,-0.505 0.618,0 1.186,0.092 1.695,0.28 0.513,0.188 0.954,0.451 1.326,0.796 0.376,0.342 0.667,0.759 0.872,1.245 0.209,0.488 0.311,1.011 0.311,1.572 0,0.701 -0.184,1.333 -0.557,1.894 -0.369,0.56 -0.933,1.199 -1.695,1.921l-3.385 3.203 5.969 0 0 1.866z"/>
 </g>
</svg>
