<?xml version="1.0" encoding="UTF-8"?>
<!DOCTYPE svg PUBLIC "-//W3C//DTD SVG 1.1//EN" "http://www.w3.org/Graphics/SVG/1.1/DTD/svg11.dtd">
<!-- Creator: CorelDRAW 2019 (64-Bit) -->
<svg xmlns="http://www.w3.org/2000/svg" xml:space="preserve" width="200px" height="64px" version="1.1" style="shape-rendering:geometricPrecision; text-rendering:geometricPrecision; image-rendering:optimizeQuality; fill-rule:evenodd; clip-rule:evenodd"
viewBox="0 0 275.437 87.922"
 xmlns:xlink="http://www.w3.org/1999/xlink"
 xmlns:xodm="http://www.corel.com/coreldraw/odm/2003">
 <defs>
  <style type="text/css">
   <![CDATA[
    .fil1 {fill:white;fill-rule:nonzero}
    .fil0 {fill:black;fill-opacity:0.000000}
   ]]>
  </style>
 </defs>
 <g id="Layer_x0020_1">
  <metadata id="CorelCorpID_0Corel-Layer"/>
  <polygon class="fil0" points="0,0 275.437,0 275.437,87.922 0,87.922 "/>
  <path class="fil1" d="M23.95 67.244l0 -41.584 16.232 0 14.309 21.761c-0.193,-0.969 -0.322,-2.035 -0.398,-3.208 -0.075,-1.183 -0.107,-2.714 -0.107,-4.604l0 -13.949 15.985 0 0 41.584 -16.372 0 -14.169 -21.587c0.172,0.93 0.29,1.929 0.376,2.995 0.086,1.066 0.129,2.268 0.129,3.596l0 14.996 -15.985 0zm70.32 -15.122l6.897 0 -1.418 -4.711c-0.687,-2.384 -1.16,-4.226 -1.418,-5.515 -0.247,-1.28 -0.408,-2.491 -0.473,-3.625l-0.279 0c-0.064,1.134 -0.215,2.345 -0.473,3.625 -0.247,1.289 -0.719,3.131 -1.418,5.515l-1.418 4.711zm-21.968 15.122l16.436 -41.584 18.434 0 16.114 41.584 -17.811 0 -1.472 -5.235 -12.494 0 -1.418 5.235 -17.789 0zm63.434 0l-17.585 -41.584 17.929 0 4.877 15.053c0.72,2.201 1.246,4.052 1.59,5.564 0.344,1.522 0.569,2.937 0.677,4.265l0.311 0c0.215,-1.405 0.516,-2.879 0.903,-4.429 0.386,-1.552 0.88,-3.238 1.493,-5.06l5.156 -15.393 17.596 0 -17.531 41.584 -15.416 0zm34.999 0l0 -41.584 30.821 0 0 11.283 -14.578 0 0 4.013 13.224 0 0 10.643 -13.224 0 0 4.361 14.954 0 0 11.284 -31.197 0zm54.132 -30.883l0 8.142 2.578 0c1.568,0 2.782,-0.348 3.631,-1.037 0.849,-0.698 1.268,-1.686 1.268,-2.976 0,-1.328 -0.419,-2.345 -1.268,-3.063 -0.849,-0.707 -2.063,-1.066 -3.631,-1.066l-2.578 0zm-16.243 30.883l0 -41.584 20.83 0c6.037,0 10.646,1.202 13.836,3.606 3.19,2.404 4.781,5.874 4.781,10.401 0,2.956 -0.806,5.389 -2.407,7.299 -1.6,1.919 -3.77,3.033 -6.499,3.353l12.322 16.925 -18.574 0 -8.046 -13.716 0 13.716 -16.243 0z"/>
 </g>
</svg>
