<?xml version="1.0" encoding="UTF-8"?>
<!DOCTYPE svg PUBLIC "-//W3C//DTD SVG 1.1//EN" "http://www.w3.org/Graphics/SVG/1.1/DTD/svg11.dtd">
<!-- Creator: CorelDRAW 2019 (64-Bit) -->
<svg xmlns="http://www.w3.org/2000/svg" xml:space="preserve" width="200px" height="64px" version="1.1" style="shape-rendering:geometricPrecision; text-rendering:geometricPrecision; image-rendering:optimizeQuality; fill-rule:evenodd; clip-rule:evenodd"
viewBox="0 0 107.503 34.316"
 xmlns:xlink="http://www.w3.org/1999/xlink"
 xmlns:xodm="http://www.corel.com/coreldraw/odm/2003">
 <defs>
  <style type="text/css">
   <![CDATA[
    .fil1 {fill:white}
    .fil0 {fill:black;fill-opacity:0.000000}
   ]]>
  </style>
 </defs>
 <g id="Layer_x0020_1">
  <metadata id="CorelCorpID_0Corel-Layer"/>
  <polygon class="fil0" points="0,0 107.503,0 107.503,34.316 0,34.316 "/>
  <g id="_2198254694832">
   <path class="fil1" d="M70.85 6.573l4.353 -0.896 -0.001 19.162c0,1.422 0.055,2.408 1.585,2.043l0.795 2.638c-0.681,0.382 -1.622,0.51 -2.461,0.527 -2.238,0.046 -4.272,-0.874 -4.271,-3.592l0 -19.882z"/>
   <path class="fil1" d="M79.556 6.573l4.353 -0.896 -0.001 19.162c0,1.422 0.055,2.408 1.586,2.043l0.795 2.638c-0.681,0.382 -1.623,0.51 -2.462,0.527 -2.238,0.046 -4.271,-0.874 -4.271,-3.592l0 -19.882z"/>
   <polygon class="fil1" points="62.116,13.466 66.469,12.57 66.469,29.735 62.116,29.735 "/>
   <path class="fil1" d="M5.356 13.795l4.005 -1.074c0.37,0.511 0.504,1.088 0.608,1.753 1.913,-2.365 6.461,-2.305 7.978,0.337 2.677,-3.098 9.243,-2.928 9.243,1.784l0 13.14 -4.353 0 0 -11.792c0,-0.573 0.073,-1.028 -0.54,-1.287 -1.125,-0.475 -2.953,0.57 -3.457,1.421l0 11.658 -4.354 0 0 -11.792c0,-0.567 0.014,-0.945 -0.568,-1.217 -1.166,-0.545 -2.997,0.376 -3.574,1.351l0 11.658 -4.354 0 0 -10.535c0,-1.939 -0.16,-3.936 -0.634,-5.405z"/>
   <path class="fil1" d="M64.305 5.87c1.51,0 2.733,1.224 2.733,2.733 0,1.509 -1.223,2.733 -2.733,2.733 -1.509,0 -2.733,-1.224 -2.733,-2.733 0,-1.509 1.224,-2.733 2.733,-2.733z"/>
   <path class="fil1" d="M36.703 12.794c4.262,0 7.496,2.848 7.496,8.647 0,5.799 -3.089,8.646 -7.496,8.646 -4.407,0 -7.496,-3.023 -7.496,-8.646 0,-5.624 3.235,-8.647 7.496,-8.647zm0 3.298c1.973,0 2.659,1.788 2.659,5.428 0,3.641 -0.71,5.428 -2.659,5.428 -1.949,0 -2.659,-1.968 -2.659,-5.428 0,-3.46 0.686,-5.428 2.659,-5.428z"/>
   <polygon class="fil1" points="46.494,13.049 59.03,13.049 59.03,16.39 51.835,26.455 59.429,26.455 58.223,29.735 45.912,29.735 45.912,26.928 53.488,16.329 46.494,16.329 "/>
   <path class="fil1" d="M96.114 17.974c0,-2.845 -4.546,-1.339 -6.631,0.402l-2.046 -3.353c1.636,-1.478 4.809,-2.444 6.868,-2.503 6.388,-0.181 6.162,3.383 6.162,5.106l0 6.758c0,1.663 0.544,2.554 1.68,3.274l-2.5 2.925c-1.058,-0.506 -1.864,-1.156 -2.557,-2.014 -2.06,2.086 -6.243,2.248 -8.346,0.272 -1.934,-1.819 -2.004,-5.937 -0.111,-7.805 1.706,-1.684 4.757,-1.828 7.481,-1.807l0 -1.255zm0 7.862l0 -3.661c-2.004,0.004 -4.279,0.322 -4.279,2.521 0,1.631 1.085,2.319 2.233,2.237 0.75,-0.053 1.526,-0.435 2.046,-1.097z"/>
  </g>
 </g>
</svg>
