<?xml version="1.0" encoding="UTF-8"?>
<!DOCTYPE svg PUBLIC "-//W3C//DTD SVG 1.1//EN" "http://www.w3.org/Graphics/SVG/1.1/DTD/svg11.dtd">
<!-- Creator: CorelDRAW 2019 (64-Bit) -->
<svg xmlns="http://www.w3.org/2000/svg" xml:space="preserve" width="200px" height="64px" version="1.1" style="shape-rendering:geometricPrecision; text-rendering:geometricPrecision; image-rendering:optimizeQuality; fill-rule:evenodd; clip-rule:evenodd"
viewBox="0 0 45.977 14.676"
 xmlns:xlink="http://www.w3.org/1999/xlink"
 xmlns:xodm="http://www.corel.com/coreldraw/odm/2003">
 <defs>
  <style type="text/css">
   <![CDATA[
    .fil1 {fill:white;fill-rule:nonzero}
    .fil0 {fill:black;fill-opacity:0.000000}
   ]]>
  </style>
 </defs>
 <g id="Layer_x0020_1">
  <metadata id="CorelCorpID_0Corel-Layer"/>
  <polygon class="fil0" points="0,0 45.977,0 45.977,14.676 0,14.676 "/>
  <path class="fil1" d="M5.02 9.141l3.642 -4.124 1.424 0.584 -3.145 3.472 3.473 3.746 -1.506 0.614 -3.888 -4.292zm-1.591 4.176l0 -11.1 1.591 -0.142 0 11.106 -1.591 0.136zm8.414 -2.81c0,0.464 0.164,0.841 0.492,1.127 0.33,0.286 0.765,0.43 1.311,0.43 0.651,0 1.162,-0.139 1.53,-0.414 0.369,-0.275 0.552,-0.658 0.552,-1.143 0,-0.483 -0.177,-0.868 -0.532,-1.164 -0.356,-0.294 -0.823,-0.441 -1.405,-0.441 -0.59,0 -1.06,0.147 -1.415,0.441 -0.356,0.296 -0.533,0.681 -0.533,1.164zm3.967 1.966c-0.308,0.302 -0.666,0.532 -1.068,0.69 -0.404,0.16 -0.844,0.238 -1.325,0.238 -0.962,0 -1.722,-0.257 -2.279,-0.768 -0.558,-0.511 -0.836,-1.206 -0.836,-2.079 0,-0.865 0.289,-1.573 0.871,-2.121 0.582,-0.548 1.323,-0.821 2.225,-0.821 0.442,0 0.844,0.058 1.205,0.176 0.36,0.118 0.702,0.302 1.027,0.545l0 -0.613c0,-0.475 -0.153,-0.823 -0.459,-1.041 -0.309,-0.218 -0.795,-0.325 -1.462,-0.325 -0.347,0 -0.719,0.047 -1.115,0.141 -0.399,0.095 -0.839,0.242 -1.325,0.441l0.374 -1.542c0.47,-0.118 0.905,-0.204 1.306,-0.262 0.402,-0.055 0.774,-0.084 1.121,-0.084 1.085,0 1.871,0.249 2.363,0.75 0.492,0.498 0.738,1.303 0.738,2.412l0 4.971 -1.361 0.22 0 -0.928zm4.555 -3.332l3.643 -4.124 1.423 0.584 -3.145 3.472 3.473 3.746 -1.505 0.614 -3.889 -4.292zm-1.59 4.176l0 -11.1 1.59 -0.142 0 11.106 -1.59 0.136zm8.413 -2.81c0,0.464 0.164,0.841 0.492,1.127 0.331,0.286 0.765,0.43 1.312,0.43 0.65,0 1.161,-0.139 1.53,-0.414 0.369,-0.275 0.552,-0.658 0.552,-1.143 0,-0.483 -0.178,-0.868 -0.533,-1.164 -0.355,-0.294 -0.822,-0.441 -1.404,-0.441 -0.591,0 -1.061,0.147 -1.416,0.441 -0.355,0.296 -0.533,0.681 -0.533,1.164zm3.968 1.966c-0.309,0.302 -0.667,0.532 -1.068,0.69 -0.405,0.16 -0.845,0.238 -1.326,0.238 -0.962,0 -1.721,-0.257 -2.279,-0.768 -0.557,-0.511 -0.836,-1.206 -0.836,-2.079 0,-0.865 0.29,-1.573 0.872,-2.121 0.582,-0.548 1.322,-0.821 2.224,-0.821 0.443,0 0.845,0.058 1.205,0.176 0.361,0.118 0.702,0.302 1.028,0.545l0 -0.613c0,-0.475 -0.153,-0.823 -0.459,-1.041 -0.309,-0.218 -0.796,-0.325 -1.462,-0.325 -0.347,0 -0.719,0.047 -1.115,0.141 -0.399,0.095 -0.839,0.242 -1.325,0.441l0.374 -1.542c0.47,-0.118 0.904,-0.204 1.306,-0.262 0.402,-0.055 0.773,-0.084 1.12,-0.084 1.085,0 1.872,0.249 2.364,0.75 0.492,0.498 0.738,1.303 0.738,2.412l0 4.971 -1.361 0.22 0 -0.928zm4.112 -3.269c0,0.805 0.271,1.473 0.809,2.003 0.539,0.529 1.213,0.794 2.025,0.794 0.809,0 1.489,-0.267 2.036,-0.799 0.546,-0.533 0.819,-1.199 0.819,-1.998 0,-0.797 -0.273,-1.463 -0.817,-1.993 -0.543,-0.529 -1.224,-0.794 -2.038,-0.794 -0.812,0 -1.486,0.265 -2.025,0.792 -0.538,0.527 -0.809,1.193 -0.809,1.995zm-1.606 -0.003c0,-0.574 0.112,-1.111 0.336,-1.612 0.224,-0.501 0.549,-0.949 0.975,-1.343 0.424,-0.39 0.902,-0.686 1.435,-0.891 0.533,-0.204 1.098,-0.307 1.697,-0.307 0.593,0 1.161,0.103 1.705,0.307 0.544,0.205 1.019,0.496 1.426,0.876 0.421,0.388 0.746,0.839 0.973,1.35 0.227,0.511 0.339,1.051 0.339,1.62 0,0.58 -0.112,1.12 -0.334,1.623 -0.221,0.506 -0.546,0.954 -0.978,1.348 -0.423,0.39 -0.902,0.687 -1.434,0.891 -0.533,0.205 -1.099,0.307 -1.697,0.307 -0.615,0 -1.186,-0.102 -1.714,-0.304 -0.527,-0.202 -1,-0.498 -1.418,-0.894 -0.426,-0.394 -0.751,-0.845 -0.975,-1.351 -0.224,-0.506 -0.336,-1.046 -0.336,-1.62z"/>
 </g>
</svg>
