<?xml version="1.0" encoding="UTF-8"?>
<!DOCTYPE svg PUBLIC "-//W3C//DTD SVG 1.1//EN" "http://www.w3.org/Graphics/SVG/1.1/DTD/svg11.dtd">
<!-- Creator: CorelDRAW 2019 (64-Bit) -->
<svg xmlns="http://www.w3.org/2000/svg" xml:space="preserve" width="200px" height="64px" version="1.1" style="shape-rendering:geometricPrecision; text-rendering:geometricPrecision; image-rendering:optimizeQuality; fill-rule:evenodd; clip-rule:evenodd"
viewBox="0 0 34.085 10.88"
 xmlns:xlink="http://www.w3.org/1999/xlink"
 xmlns:xodm="http://www.corel.com/coreldraw/odm/2003"
 enable-background="new 0 0 800 600">
 <defs>
  <style type="text/css">
   <![CDATA[
    .fil1 {fill:white}
    .fil0 {fill:black;fill-opacity:0.000000}
   ]]>
  </style>
 </defs>
 <g id="Layer_x0020_1">
  <metadata id="CorelCorpID_0Corel-Layer"/>
  <polygon class="fil0" points="0,0 34.085,0 34.085,10.88 0,10.88 "/>
  <g id="_2198225442384">
   <g>
    <path class="fil1" d="M5.336 4.337l0 1.051 2.51 0c-0.077,0.589 -0.273,1.02 -0.572,1.323 -0.367,0.367 -0.939,0.769 -1.938,0.769 -1.546,0 -2.754,-1.247 -2.754,-2.792 0,-1.546 1.208,-2.793 2.754,-2.793 0.832,0 1.443,0.329 1.891,0.752l0.739 -0.739c-0.624,-0.606 -1.46,-1.067 -2.63,-1.067 -2.118,0 -3.898,1.725 -3.898,3.842 0,2.118 1.78,3.843 3.898,3.843 1.144,0 2.007,-0.376 2.681,-1.076 0.692,-0.692 0.909,-1.67 0.909,-2.455 0,-0.243 -0.017,-0.47 -0.055,-0.658l-3.535 0 0 0z"/>
    <path class="fil1" d="M12.064 3.484c-1.37,0 -2.489,1.041 -2.489,2.48 0,1.426 1.119,2.481 2.489,2.481 1.371,0 2.489,-1.051 2.489,-2.481 0,-1.439 -1.118,-2.48 -2.489,-2.48zm0 3.983c-0.751,0 -1.4,-0.619 -1.4,-1.503 0,-0.892 0.649,-1.503 1.4,-1.503 0.752,0 1.401,0.611 1.401,1.503 0,0.884 -0.649,1.503 -1.401,1.503z"/>
    <path class="fil1" d="M24.266 4.039l-0.038 0c-0.244,-0.291 -0.713,-0.555 -1.307,-0.555 -1.238,0 -2.318,1.08 -2.318,2.48 0,1.392 1.08,2.481 2.318,2.481 0.594,0 1.063,-0.265 1.307,-0.564l0.038 0 0 0.346c0,0.948 -0.508,1.456 -1.323,1.456 -0.666,0 -1.08,-0.479 -1.251,-0.884l-0.948 0.393c0.273,0.657 0.995,1.464 2.199,1.464 1.276,0 2.356,-0.751 2.356,-2.583l0 -4.461 -1.033 0 0 0.427zm-1.251 3.428c-0.751,0 -1.323,-0.641 -1.323,-1.503 0,-0.875 0.572,-1.503 1.323,-1.503 0.743,0 1.324,0.641 1.324,1.512 0.004,0.866 -0.581,1.494 -1.324,1.494z"/>
    <path class="fil1" d="M17.615 3.484c-1.371,0 -2.49,1.041 -2.49,2.48 0,1.426 1.119,2.481 2.49,2.481 1.37,0 2.489,-1.051 2.489,-2.481 0,-1.439 -1.119,-2.48 -2.489,-2.48zm0 3.983c-0.752,0 -1.401,-0.619 -1.401,-1.503 0,-0.892 0.649,-1.503 1.401,-1.503 0.751,0 1.4,0.611 1.4,1.503 0,0.884 -0.649,1.503 -1.4,1.503z"/>
    <polygon class="fil1" points="26.153,0.943 27.225,0.943 27.225,8.444 26.153,8.444 "/>
    <path class="fil1" d="M30.534 7.467c-0.555,0 -0.948,-0.252 -1.204,-0.752l3.317 -1.37 -0.111 -0.282c-0.205,-0.555 -0.837,-1.58 -2.122,-1.58 -1.276,0 -2.339,1.004 -2.339,2.481 0,1.392 1.05,2.481 2.459,2.481 1.135,0 1.793,-0.696 2.066,-1.098l-0.845 -0.563c-0.282,0.41 -0.666,0.683 -1.221,0.683l0 0zm-0.077 -3.053c0.44,0 0.815,0.226 0.939,0.547l-2.241 0.926c0,-1.042 0.738,-1.473 1.302,-1.473z"/>
   </g>
  </g>
 </g>
</svg>
