<?xml version="1.0" encoding="UTF-8"?>
<!DOCTYPE svg PUBLIC "-//W3C//DTD SVG 1.1//EN" "http://www.w3.org/Graphics/SVG/1.1/DTD/svg11.dtd">
<!-- Creator: CorelDRAW 2019 (64-Bit) -->
<svg xmlns="http://www.w3.org/2000/svg" xml:space="preserve" width="200px" height="64px" version="1.1" style="shape-rendering:geometricPrecision; text-rendering:geometricPrecision; image-rendering:optimizeQuality; fill-rule:evenodd; clip-rule:evenodd"
viewBox="0 0 63.224 20.182"
 xmlns:xlink="http://www.w3.org/1999/xlink"
 xmlns:xodm="http://www.corel.com/coreldraw/odm/2003">
 <defs>
  <style type="text/css">
   <![CDATA[
    .fil1 {fill:white}
    .fil0 {fill:black;fill-opacity:0.000000}
   ]]>
  </style>
 </defs>
 <g id="Layer_x0020_1">
  <metadata id="CorelCorpID_0Corel-Layer"/>
  <polygon class="fil0" points="0,0 63.224,0 63.224,20.182 0,20.182 "/>
  <path class="fil1" d="M33.133 6.295c0,0.633 -0.51,1.142 -1.142,1.142 -0.633,0 -1.143,-0.509 -1.143,-1.142 0,-0.633 0.492,-1.142 1.143,-1.142 0.65,0.017 1.142,0.527 1.142,1.142zm-4.71 2.303c0,0.105 0,0.281 0,0.281 0,0 -0.545,-0.703 -1.705,-0.703 -1.916,0 -3.41,1.458 -3.41,3.48 0,2.004 1.476,3.48 3.41,3.48 1.177,0 1.705,-0.721 1.705,-0.721l0 0.299c0,0.141 0.105,0.246 0.246,0.246l1.424 0 0 -6.608c0,0 -1.301,0 -1.424,0 -0.141,0 -0.246,0.123 -0.246,0.246zm0 4.236c-0.264,0.386 -0.791,0.72 -1.424,0.72 -1.125,0 -1.986,-0.703 -1.986,-1.898 0,-1.195 0.861,-1.898 1.986,-1.898 0.615,0 1.178,0.351 1.424,0.72l0 2.356zm2.724 -4.482l1.687 0 0 6.608 -1.687 0 0 -6.608zm25.205 -0.176c-1.16,0 -1.705,0.703 -1.705,0.703l0 -3.709 -1.687 0 0 9.79c0,0 1.3,0 1.423,0 0.141,0 0.247,-0.123 0.247,-0.246l0 -0.299c0,0 0.544,0.721 1.705,0.721 1.916,0 3.41,-1.476 3.41,-3.48 0,-2.004 -1.494,-3.48 -3.393,-3.48zm-0.281 5.36c-0.65,0 -1.16,-0.333 -1.424,-0.72l0 -2.355c0.264,-0.352 0.826,-0.721 1.424,-0.721 1.125,0 1.986,0.703 1.986,1.898 0,1.196 -0.861,1.898 -1.986,1.898zm-3.99 -2.495l0 3.937 -1.687 0 0 -3.744c0,-1.09 -0.352,-1.529 -1.301,-1.529 -0.51,0 -1.037,0.263 -1.371,0.65l0 4.605 -1.688 0 0 -6.608 1.336 0c0.141,0 0.246,0.123 0.246,0.246l0 0.281c0.493,-0.51 1.143,-0.703 1.793,-0.703 0.739,0 1.354,0.211 1.846,0.633 0.598,0.492 0.826,1.124 0.826,2.232zm-10.142 -2.865c-1.16,0 -1.705,0.703 -1.705,0.703l0 -3.709 -1.687 0 0 9.79c0,0 1.301,0 1.424,0 0.14,0 0.246,-0.123 0.246,-0.246l0 -0.299c0,0 0.545,0.721 1.705,0.721 1.916,0 3.41,-1.476 3.41,-3.48 0.017,-2.004 -1.477,-3.48 -3.393,-3.48zm-0.281 5.36c-0.65,0 -1.16,-0.333 -1.424,-0.72l0 -2.355c0.264,-0.352 0.826,-0.721 1.424,-0.721 1.125,0 1.986,0.703 1.986,1.898 0,1.196 -0.861,1.898 -1.986,1.898zm-4.57 -5.36c0.51,0 0.773,0.087 0.773,0.087l0 1.565c0,0 -1.406,-0.475 -2.285,0.527l0 4.623 -1.687 0 0 -6.626c0,0 1.301,0 1.424,0 0.14,0 0.246,0.123 0.246,0.246l0 0.281c0.316,-0.369 1.002,-0.703 1.529,-0.703zm-17.524 6.187c-0.088,-0.211 -0.176,-0.44 -0.264,-0.633 -0.14,-0.316 -0.281,-0.615 -0.404,-0.896l-0.018 -0.018c-1.212,-2.636 -2.513,-5.308 -3.884,-7.945l-0.053 -0.105c-0.14,-0.264 -0.281,-0.545 -0.422,-0.826 -0.175,-0.317 -0.351,-0.651 -0.632,-0.967 -0.563,-0.703 -1.371,-1.09 -2.233,-1.09 -0.878,0 -1.67,0.387 -2.249,1.055 -0.264,0.316 -0.457,0.65 -0.633,0.967 -0.141,0.281 -0.281,0.562 -0.422,0.826l-0.053 0.105c-1.353,2.637 -2.671,5.308 -3.884,7.945l-0.018 0.035c-0.123,0.281 -0.263,0.58 -0.404,0.896 -0.088,0.194 -0.176,0.405 -0.264,0.633 -0.228,0.65 -0.298,1.266 -0.211,1.898 0.194,1.319 1.073,2.426 2.285,2.918 0.457,0.194 0.932,0.281 1.424,0.281 0.141,0 0.316,-0.017 0.457,-0.035 0.58,-0.07 1.178,-0.263 1.758,-0.597 0.72,-0.405 1.406,-0.985 2.179,-1.828 0.774,0.843 1.477,1.423 2.18,1.828 0.58,0.334 1.177,0.527 1.757,0.597 0.141,0.018 0.317,0.035 0.457,0.035 0.493,0 0.985,-0.087 1.424,-0.281 1.231,-0.492 2.092,-1.617 2.285,-2.918 0.141,-0.615 0.071,-1.23 -0.158,-1.88zm-7.927 0.914c-0.949,-1.195 -1.564,-2.32 -1.775,-3.27 -0.088,-0.404 -0.106,-0.755 -0.053,-1.072 0.035,-0.281 0.14,-0.527 0.281,-0.738 0.334,-0.474 0.897,-0.773 1.547,-0.773 0.65,0 1.23,0.281 1.547,0.773 0.14,0.211 0.246,0.457 0.281,0.738 0.052,0.317 0.035,0.686 -0.053,1.072 -0.211,0.932 -0.826,2.057 -1.775,3.27zm7.013 0.826c-0.123,0.914 -0.738,1.705 -1.599,2.056 -0.422,0.176 -0.879,0.229 -1.336,0.176 -0.44,-0.053 -0.879,-0.193 -1.336,-0.457 -0.633,-0.351 -1.265,-0.896 -2.004,-1.705 1.16,-1.424 1.863,-2.724 2.127,-3.884 0.123,-0.545 0.141,-1.037 0.088,-1.494 -0.071,-0.44 -0.229,-0.844 -0.475,-1.196 -0.545,-0.79 -1.459,-1.247 -2.478,-1.247 -1.02,0 -1.934,0.474 -2.478,1.247 -0.246,0.352 -0.405,0.756 -0.475,1.196 -0.07,0.457 -0.053,0.966 0.088,1.494 0.264,1.16 0.984,2.478 2.127,3.902 -0.721,0.808 -1.371,1.353 -2.004,1.705 -0.457,0.263 -0.897,0.404 -1.336,0.457 -0.474,0.052 -0.932,-0.018 -1.336,-0.176 -0.861,-0.352 -1.476,-1.143 -1.599,-2.057 -0.053,-0.439 -0.018,-0.879 0.158,-1.371 0.053,-0.175 0.14,-0.351 0.229,-0.562 0.123,-0.281 0.263,-0.58 0.404,-0.879l0.017 -0.035c1.213,-2.619 2.514,-5.291 3.867,-7.892l0.053 -0.105c0.14,-0.264 0.281,-0.545 0.422,-0.809 0.14,-0.281 0.299,-0.545 0.492,-0.773 0.369,-0.422 0.861,-0.651 1.406,-0.651 0.545,0 1.037,0.229 1.406,0.651 0.193,0.228 0.352,0.492 0.492,0.773 0.141,0.264 0.282,0.545 0.422,0.809l0.053 0.105c1.336,2.619 2.636,5.291 3.849,7.909l0 0.018c0.141,0.281 0.264,0.598 0.404,0.879 0.088,0.211 0.176,0.387 0.229,0.562 0.141,0.457 0.193,0.897 0.123,1.354z"/>
 </g>
</svg>
