<?xml version="1.0" encoding="UTF-8"?>
<!DOCTYPE svg PUBLIC "-//W3C//DTD SVG 1.1//EN" "http://www.w3.org/Graphics/SVG/1.1/DTD/svg11.dtd">
<!-- Creator: CorelDRAW 2019 (64-Bit) -->
<svg xmlns="http://www.w3.org/2000/svg" xml:space="preserve" width="324px" height="324px" version="1.1" style="shape-rendering:geometricPrecision; text-rendering:geometricPrecision; image-rendering:optimizeQuality; fill-rule:evenodd; clip-rule:evenodd"
viewBox="0 0 204.755 204.755"
 xmlns:xlink="http://www.w3.org/1999/xlink"
 xmlns:xodm="http://www.corel.com/coreldraw/odm/2003">
 <defs>
  <style type="text/css">
   <![CDATA[
    .fil0 {fill:none}
    .fil3 {fill:#EC5242}
    .fil1 {fill:#EC5242;fill-rule:nonzero}
    .fil2 {fill:white;fill-rule:nonzero}
   ]]>
  </style>
 </defs>
 <g id="Layer_x0020_1">
  <metadata id="CorelCorpID_0Corel-Layer"/>
  <rect class="fil0" width="204.755" height="204.755"/>
  <g id="_2344199671184">
   <path class="fil1" d="M46.639 114.087c-7.487,0 -14.266,3.035 -19.171,7.94 -4.906,4.906 -7.94,11.684 -7.94,19.171 0,7.488 3.034,14.266 7.94,19.171 4.905,4.906 11.684,7.94 19.171,7.94 7.487,0 14.265,-3.034 19.171,-7.94 4.905,-4.905 7.94,-11.683 7.94,-19.171 0,-7.487 -3.035,-14.265 -7.94,-19.171 -4.906,-4.905 -11.684,-7.94 -19.171,-7.94zm-29.895 -2.783c7.651,-7.651 18.221,-12.384 29.895,-12.384 11.674,0 22.243,4.733 29.894,12.384 7.651,7.651 12.384,18.221 12.384,29.894 0,11.674 -4.733,22.244 -12.384,29.895 -7.651,7.651 -18.22,12.384 -29.894,12.384 -11.674,0 -22.244,-4.733 -29.895,-12.384 -7.651,-7.651 -12.383,-18.221 -12.383,-29.895 0,-11.673 4.732,-22.243 12.383,-29.894z"/>
   <path class="fil1" d="M158.117 114.087c-7.488,0 -14.266,3.035 -19.171,7.94 -4.906,4.906 -7.94,11.684 -7.94,19.171 0,7.488 3.034,14.266 7.94,19.171 4.905,4.906 11.683,7.94 19.171,7.94 7.487,0 14.265,-3.034 19.171,-7.94 4.905,-4.905 7.94,-11.683 7.94,-19.171 0,-7.487 -3.035,-14.265 -7.94,-19.171 -4.906,-4.905 -11.684,-7.94 -19.171,-7.94zm-29.895 -2.783c7.651,-7.651 18.221,-12.384 29.895,-12.384 11.673,0 22.243,4.733 29.894,12.384 7.651,7.651 12.384,18.221 12.384,29.894 0,11.674 -4.733,22.244 -12.384,29.895 -7.651,7.651 -18.221,12.384 -29.894,12.384 -11.674,0 -22.244,-4.733 -29.895,-12.384 -7.651,-7.651 -12.384,-18.221 -12.384,-29.895 0,-11.673 4.733,-22.243 12.384,-29.894z"/>
   <path class="fil2" d="M108.984 153.794c-0.36,4.172 -4.034,7.262 -8.206,6.902 -4.172,-0.359 -7.262,-4.033 -6.902,-8.205l3.038 -35.106 -27.14 -19.099c-3.419,-2.405 -4.241,-7.126 -1.836,-10.545 0.445,-0.634 0.97,-1.177 1.551,-1.628l36.035 -31.906c2.953,-2.613 7.381,-2.495 10.192,0.164l23.632 21.2 20.83 1.008c4.172,0.196 7.395,3.737 7.199,7.909 -0.196,4.172 -3.738,7.395 -7.909,7.198l-23.509 -1.137 0 -0.01c-1.675,-0.078 -3.334,-0.711 -4.681,-1.916l-20.779 -18.64 -24.196 21.424 22.52 15.847c2.358,1.457 3.828,4.157 3.573,7.106l-3.412 39.434z"/>
   <circle class="fil3" cx="132.641" cy="37.773" r="16.494"/>
  </g>
 </g>
</svg>
