<?xml version="1.0" encoding="UTF-8"?>
<!DOCTYPE svg PUBLIC "-//W3C//DTD SVG 1.1//EN" "http://www.w3.org/Graphics/SVG/1.1/DTD/svg11.dtd">
<!-- Creator: CorelDRAW 2019 (64-Bit) -->
<svg xmlns="http://www.w3.org/2000/svg" xml:space="preserve" width="324px" height="324px" version="1.1" style="shape-rendering:geometricPrecision; text-rendering:geometricPrecision; image-rendering:optimizeQuality; fill-rule:evenodd; clip-rule:evenodd"
viewBox="0 0 67.54 67.54"
 xmlns:xlink="http://www.w3.org/1999/xlink"
 xmlns:xodm="http://www.corel.com/coreldraw/odm/2003">
 <defs>
  <style type="text/css">
   <![CDATA[
    .fil0 {fill:none}
    .fil1 {fill:#EC5242;fill-rule:nonzero}
    .fil2 {fill:white;fill-rule:nonzero}
   ]]>
  </style>
 </defs>
 <g id="Layer_x0020_1">
  <metadata id="CorelCorpID_0Corel-Layer"/>
  <rect class="fil0" width="67.54" height="67.54"/>
  <path class="fil1" d="M27.066 11.977c2.928,-2.929 6.545,-4.766 10.341,-5.513 3.898,-0.766 7.985,-0.369 11.705,1.19l3.428 1.437 -13.312 13.311c-0.263,0.264 -0.395,0.613 -0.395,0.964 0,0.352 0.132,0.701 0.395,0.965l3.981 3.98c0.263,0.263 0.613,0.395 0.964,0.395 0.351,0 0.701,-0.132 0.964,-0.395l13.312 -13.311 1.436 3.427c1.56,3.721 1.957,7.807 1.19,11.705 -0.746,3.797 -2.584,7.414 -5.512,10.342 -2.342,2.342 -5.128,3.988 -8.097,4.937 -2.645,0.846 -5.431,1.131 -8.174,0.856l-11.467 11.468c-2.48,2.479 -5.746,3.719 -9.01,3.719 -3.265,0 -6.531,-1.24 -9.01,-3.719 -2.48,-2.48 -3.72,-5.746 -3.72,-9.01 0,-3.264 1.24,-6.531 3.72,-9.01l11.468 -11.468c-0.276,-2.742 0.01,-5.529 0.855,-8.174 0.95,-2.968 2.596,-5.755 4.938,-8.096zm11.308 -0.621c-2.84,0.559 -5.557,1.944 -7.771,4.158 -1.772,1.773 -3.012,3.864 -3.721,6.08 -0.74,2.312 -0.911,4.766 -0.514,7.141l0.213 1.278 -13.239 13.24c-1.503,1.503 -2.254,3.487 -2.254,5.472 0,1.985 0.751,3.969 2.254,5.472 1.503,1.503 3.487,2.255 5.473,2.255 1.985,0 3.969,-0.752 5.472,-2.255l13.239 -13.239 1.279 0.214c2.375,0.397 4.828,0.225 7.141,-0.515 2.216,-0.708 4.307,-1.948 6.079,-3.721 2.214,-2.214 3.6,-4.931 4.158,-7.771 0.323,-1.642 0.374,-3.325 0.152,-4.976l-7.66 7.66c-1.24,1.24 -2.872,1.86 -4.502,1.86 -1.63,0 -3.262,-0.62 -4.502,-1.86l-3.98 -3.981c-1.24,-1.24 -1.86,-2.871 -1.86,-4.502 0,-1.63 0.62,-3.262 1.86,-4.502l7.66 -7.66c-1.652,-0.221 -3.335,-0.171 -4.977,0.152z"/>
  <path class="fil2" d="M21.253 46.287c1.099,1.099 1.099,2.88 0,3.979 -1.099,1.099 -2.881,1.099 -3.98,0 -1.099,-1.099 -1.099,-2.88 0,-3.979 1.099,-1.099 2.881,-1.099 3.98,0z"/>
 </g>
</svg>
