<?xml version="1.0" encoding="UTF-8"?>
<!DOCTYPE svg PUBLIC "-//W3C//DTD SVG 1.1//EN" "http://www.w3.org/Graphics/SVG/1.1/DTD/svg11.dtd">
<!-- Creator: CorelDRAW 2019 (64-Bit) -->
<svg xmlns="http://www.w3.org/2000/svg" xml:space="preserve" width="324px" height="324px" version="1.1" style="shape-rendering:geometricPrecision; text-rendering:geometricPrecision; image-rendering:optimizeQuality; fill-rule:evenodd; clip-rule:evenodd"
viewBox="0 0 214.014 214.014"
 xmlns:xlink="http://www.w3.org/1999/xlink"
 xmlns:xodm="http://www.corel.com/coreldraw/odm/2003">
 <defs>
  <style type="text/css">
   <![CDATA[
    .fil0 {fill:none}
    .fil2 {fill:#EC5242;fill-rule:nonzero}
    .fil1 {fill:white;fill-rule:nonzero}
   ]]>
  </style>
 </defs>
 <g id="Layer_x0020_1">
  <metadata id="CorelCorpID_0Corel-Layer"/>
  <rect class="fil0" width="214.014" height="214.014"/>
  <g id="_2344066507856">
   <path class="fil1" d="M147.492 75.674c0,-4.378 3.549,-7.927 7.927,-7.927 4.377,0 7.926,3.549 7.926,7.927l0 24.025c0,15.501 -6.335,29.588 -16.543,39.795 -8.436,8.437 -19.523,14.228 -31.868,15.984l0 26.226 30.121 0c4.377,0 7.926,3.549 7.926,7.926 0,4.378 -3.549,7.927 -7.926,7.927l-38.048 0 -38.048 0c-4.377,0 -7.926,-3.549 -7.926,-7.927 0,-4.377 3.549,-7.926 7.926,-7.926l30.121 0 0 -26.226c-12.345,-1.756 -23.431,-7.547 -31.868,-15.984 -10.208,-10.207 -16.543,-24.294 -16.543,-39.795l0 -24.025c0,-4.378 3.549,-7.927 7.926,-7.927 4.378,0 7.927,3.549 7.927,7.927l0 24.025c0,11.125 4.557,21.245 11.898,28.587 7.342,7.341 17.462,11.898 28.587,11.898 11.125,0 21.245,-4.557 28.587,-11.898 7.341,-7.342 11.898,-17.462 11.898,-28.587l0 -24.025z"/>
   <path class="fil2" d="M107.007 16.458c9.686,0 18.486,3.956 24.86,10.331 6.374,6.374 10.331,15.174 10.331,24.86l0 48.05c0,9.685 -3.957,18.485 -10.331,24.859 -6.374,6.375 -15.174,10.332 -24.86,10.332 -9.686,0 -18.485,-3.957 -24.86,-10.332 -6.374,-6.374 -10.331,-15.174 -10.331,-24.859l0 -48.05c0,-9.686 3.957,-18.486 10.331,-24.86 6.375,-6.375 15.174,-10.331 24.86,-10.331zm0 15.853c-5.31,0 -10.143,2.177 -13.651,5.686 -3.509,3.509 -5.687,8.342 -5.687,13.652l0 48.05c0,5.309 2.178,10.142 5.687,13.651 3.508,3.509 8.341,5.687 13.651,5.687 5.31,0 10.143,-2.178 13.652,-5.687 3.508,-3.509 5.686,-8.342 5.686,-13.651l0 -48.05c0,-5.31 -2.178,-10.143 -5.686,-13.652 -3.509,-3.508 -8.342,-5.686 -13.652,-5.686z"/>
  </g>
 </g>
</svg>
