<?xml version="1.0" encoding="UTF-8"?>
<!DOCTYPE svg PUBLIC "-//W3C//DTD SVG 1.1//EN" "http://www.w3.org/Graphics/SVG/1.1/DTD/svg11.dtd">
<!-- Creator: CorelDRAW 2019 (64-Bit) -->
<svg xmlns="http://www.w3.org/2000/svg" xml:space="preserve" width="324px" height="324px" version="1.1" style="shape-rendering:geometricPrecision; text-rendering:geometricPrecision; image-rendering:optimizeQuality; fill-rule:evenodd; clip-rule:evenodd"
viewBox="0 0 77.227 77.227"
 xmlns:xlink="http://www.w3.org/1999/xlink"
 xmlns:xodm="http://www.corel.com/coreldraw/odm/2003">
 <defs>
  <style type="text/css">
   <![CDATA[
    .fil0 {fill:none}
    .fil1 {fill:#EC5242;fill-rule:nonzero}
    .fil2 {fill:white;fill-rule:nonzero}
   ]]>
  </style>
 </defs>
 <g id="Layer_x0020_1">
  <metadata id="CorelCorpID_0Corel-Layer"/>
  <rect class="fil0" width="77.227" height="77.227"/>
  <g id="_2344253974160">
   <path class="fil1" d="M23.568 66.752l-10.977 0.982c-1.571,0.139 -2.958,-1.021 -3.097,-2.592 -0.017,-0.186 -0.015,-0.37 0.004,-0.549l0.992 -11.095c0.139,-1.571 1.526,-2.731 3.097,-2.592 0.695,0.062 1.309,0.368 1.766,0.826l0.004 -0.004 10.142 10.143c1.117,1.117 1.117,2.928 0,4.045 -0.535,0.535 -1.23,0.814 -1.931,0.836z"/>
   <path class="fil2" d="M57.845 34.754l-26.748 26.748c-1.117,1.117 -2.928,1.117 -4.045,0l-11.326 -11.326c-1.117,-1.117 -1.117,-2.928 0,-4.045l26.747 -26.748c1.117,-1.117 2.928,-1.117 4.045,0l11.327 11.326c1.117,1.117 1.117,2.928 0,4.045zm-28.771 20.68l22.703 -22.702 -7.281 -7.281 -22.703 22.702 7.281 7.281z"/>
   <path class="fil1" d="M59.374 11.305l6.548 6.549c1.215,1.215 1.823,2.814 1.823,4.411 0,1.597 -0.608,3.196 -1.823,4.411l-2.971 2.971c-1.117,1.117 -2.928,1.117 -4.045,0l-11.326 -11.326c-1.117,-1.117 -1.117,-2.928 0,-4.045l2.971 -2.971c1.215,-1.215 2.814,-1.823 4.411,-1.823 1.598,0 3.197,0.608 4.412,1.823z"/>
  </g>
 </g>
</svg>
