<?xml version="1.0" encoding="UTF-8"?>
<!DOCTYPE svg PUBLIC "-//W3C//DTD SVG 1.1//EN" "http://www.w3.org/Graphics/SVG/1.1/DTD/svg11.dtd">
<!-- Creator: CorelDRAW 2019 (64-Bit) -->
<svg xmlns="http://www.w3.org/2000/svg" xml:space="preserve" width="324px" height="324px" version="1.1" style="shape-rendering:geometricPrecision; text-rendering:geometricPrecision; image-rendering:optimizeQuality; fill-rule:evenodd; clip-rule:evenodd"
viewBox="0 0 46.414 46.414"
 xmlns:xlink="http://www.w3.org/1999/xlink"
 xmlns:xodm="http://www.corel.com/coreldraw/odm/2003">
 <defs>
  <style type="text/css">
   <![CDATA[
    .fil0 {fill:none}
    .fil2 {fill:#EC5242;fill-rule:nonzero}
    .fil1 {fill:white;fill-rule:nonzero}
   ]]>
  </style>
 </defs>
 <g id="Layer_x0020_1">
  <metadata id="CorelCorpID_0Corel-Layer"/>
  <rect class="fil0" width="46.414" height="46.414"/>
  <g id="_2344256216400">
   <path class="fil1" d="M19.296 7.908c-0.605,0 -1.153,0.245 -1.55,0.641 -0.396,0.397 -0.641,0.945 -0.641,1.55 0,0.606 0.245,1.154 0.641,1.55 0.397,0.397 0.945,0.642 1.55,0.642 0.606,0 1.154,-0.245 1.55,-0.642 0.397,-0.396 0.642,-0.944 0.642,-1.55 0,-0.605 -0.245,-1.153 -0.642,-1.55 -0.396,-0.396 -0.944,-0.641 -1.55,-0.641zm7.822 0c-0.605,0 -1.153,0.245 -1.55,0.641 -0.396,0.397 -0.642,0.945 -0.642,1.55 0,0.606 0.246,1.154 0.642,1.55 0.397,0.397 0.945,0.642 1.55,0.642 0.605,0 1.153,-0.245 1.55,-0.642 0.396,-0.396 0.642,-0.944 0.642,-1.55 0,-0.605 -0.246,-1.153 -0.642,-1.55 -0.397,-0.396 -0.945,-0.641 -1.55,-0.641zm-3.911 -1.858c1.013,-0.978 2.392,-1.58 3.911,-1.58 1.554,0 2.962,0.63 3.981,1.649 1.019,1.018 1.649,2.426 1.649,3.98 0,1.555 -0.63,2.962 -1.649,3.981 -1.019,1.019 -2.427,1.649 -3.981,1.649 -1.519,0 -2.898,-0.602 -3.911,-1.58 -1.013,0.978 -2.391,1.58 -3.911,1.58 -1.554,0 -2.962,-0.63 -3.98,-1.649 -1.019,-1.019 -1.65,-2.426 -1.65,-3.981 0,-1.554 0.631,-2.962 1.65,-3.98 1.018,-1.019 2.426,-1.649 3.98,-1.649 1.52,0 2.898,0.602 3.911,1.58z"/>
   <polygon class="fil1" points="24.926,10.099 24.926,40.054 21.488,40.054 21.488,10.099 "/>
   <path class="fil2" d="M10.228 12.291l25.958 0c0.9,0 1.717,0.367 2.308,0.958 0.591,0.591 0.958,1.408 0.958,2.308l0 4.642c0,0.9 -0.367,1.717 -0.958,2.308 -0.591,0.591 -1.408,0.958 -2.308,0.958l-25.958 0c-0.9,0 -1.717,-0.367 -2.308,-0.958 -0.591,-0.591 -0.958,-1.408 -0.958,-2.308l0 -4.642c0,-0.9 0.367,-1.717 0.958,-2.308 0.591,-0.591 1.408,-0.958 2.308,-0.958zm25.786 3.438l-25.614 0 0 4.298 25.614 0 0 -4.298z"/>
   <path class="fil2" d="M37.304 21.574l0 14.182c0,1.704 -0.696,3.252 -1.817,4.372 -1.121,1.121 -2.669,1.817 -4.372,1.817l-15.816 0c-1.703,0 -3.251,-0.696 -4.372,-1.817 -1.12,-1.12 -1.816,-2.668 -1.816,-4.372l0 -14.182 3.438 0 0 14.182c0,0.755 0.31,1.442 0.809,1.942 0.5,0.499 1.187,0.809 1.941,0.809l15.816 0c0.755,0 1.442,-0.31 1.941,-0.809 0.499,-0.5 0.809,-1.187 0.809,-1.942l0 -14.182 3.439 0z"/>
  </g>
 </g>
</svg>
